<svg width="67" height="68" viewBox="0 0 67 68" fill="none" xmlns="http://www.w3.org/2000/svg">
<path d="M39.9755 0.999089C39.7169 0.391252 39.1231 0 38.4593 0H35.3363C34.6726 0 34.0717 0.398238 33.8202 1.00608L10.8691 55.5298C10.5058 56.3751 10.1914 56.8083 9.98882 57.0249C9.71634 57.3183 9.52071 57.3114 9.19234 56.983C8.96178 56.7524 8.78013 56.3821 8.66834 55.9001C8.55656 55.397 8.20722 54.9778 7.73912 54.7682C7.27102 54.5586 6.72606 54.5726 6.27193 54.8241L0.864273 57.7585C0.214516 58.1078 -0.120843 58.8484 0.0398499 59.568C0.549874 61.8247 1.69568 63.6902 3.45631 65.1224C5.22393 66.5547 7.51555 67.2813 10.2753 67.2813C12.2245 67.2813 14.1529 66.7014 16.0043 65.5696C17.8907 64.4098 19.2601 62.8168 20.0566 60.8536L26.1489 46.2585H47.8214L55.8421 65.5346C56.1006 66.1494 56.7015 66.5477 57.3652 66.5477H65.3509C65.9029 66.5477 66.4199 66.2682 66.7273 65.8071C67.0347 65.346 67.0836 64.7591 66.867 64.2561L39.9755 0.999089ZM43.4199 36.1698H30.2081L36.8454 18.7801L43.4199 36.1698Z" fill="#003551"/>
</svg>
